HIERARCHY
ROOT Hips
{
	OFFSET 0.00000 0.00000 0.00000
	CHANNELS 6 Xposition Yposition Zposition Zrotation Yrotation Xrotation 
	JOINT LHipJoint
	{
		OFFSET 0 0 0
		CHANNELS 3 Zrotation Yrotation Xrotation
		JOINT LeftHip
		{
			OFFSET 1.84395 -1.68683 0.74144
			CHANNELS 3 Zrotation Yrotation Xrotation
			JOINT LeftKnee
			{
				OFFSET 2.27037 -6.23779 0.00000
				CHANNELS 3 Zrotation Yrotation Xrotation
				JOINT LeftAnkle
				{
					OFFSET 2.56918 -7.05877 0.00000
					CHANNELS 3 Zrotation Yrotation Xrotation
					JOINT LeftToe
					{
						OFFSET 0.22276 -0.61202 1.71784
						CHANNELS 3 Zrotation Yrotation Xrotation
						End Site
						{
							OFFSET 0.00000 -0.00000 0.91613
						}
					}
				}
			}
		}
	}
	JOINT RHipJoint
	{
		OFFSET 0 0 0
		CHANNELS 3 Zrotation Yrotation Xrotation
		JOINT RightHip
		{
			OFFSET -1.76833 -1.68684 0.74144
			CHANNELS 3 Zrotation Yrotation Xrotation
			JOINT RightKnee
			{
				OFFSET -2.49360 -6.85110 0.00000
				CHANNELS 3 Zrotation Yrotation Xrotation
				JOINT RightAnkle
				{
					OFFSET -2.55538 -7.02085 0.00000
					CHANNELS 3 Zrotation Yrotation Xrotation
					JOINT RightToe
					{
						OFFSET -0.21516 -0.59115 1.68050
						CHANNELS 3 Zrotation Yrotation Xrotation
						End Site
						{
							OFFSET -0.00000 -0.00000 0.89604
						}
					}
				}
			}
		}
	}
	JOINT lowerback
	{
		OFFSET 0 0 0
		CHANNELS 3 Zrotation Yrotation Xrotation
		JOINT Chest
		{
			OFFSET 0.06382 1.72312 -0.19613
			CHANNELS 3 Zrotation Yrotation Xrotation
			JOINT Chest2
			{
				OFFSET -0.00055 1.73507 0.23859
				CHANNELS 3 Zrotation Yrotation Xrotation
				JOINT lowerneck
				{
					OFFSET 0 0 0
					CHANNELS 3 Zrotation Yrotation Xrotation
					JOINT Neck
					{
						OFFSET 0.03638 1.65562 0.09633
						CHANNELS 3 Zrotation Yrotation Xrotation
						JOINT Head
						{
							OFFSET 0.06388 1.62807 -0.32386
							CHANNELS 3 Zrotation Yrotation Xrotation
							End Site
							{
								OFFSET 0.00995 1.67644 -0.12021
							}
						}
					}
				}
				JOINT LeftCollar
				{
					OFFSET 0 0 0
					CHANNELS 3 Zrotation Yrotation Xrotation
					JOINT LeftShoulder
					{
						OFFSET 3.09648 1.42991 0.28122
CHANNELS 3 Zrotation Xrotation Yrotation
						JOINT LeftElbow
						{
OFFSET 0 -5.118780 -0.000000
CHANNELS 3 Zrotation Xrotation Yrotation
							JOINT LeftWrist
							{
OFFSET 0 -3.599710 0.000000
CHANNELS 3 Zrotation Xrotation Yrotation
								JOINT lhand
								{
									OFFSET 0 0 0
CHANNELS 3 Zrotation Xrotation Yrotation
									JOINT LFingers
									{
OFFSET 0 -0.628770 0.000000
CHANNELS 3 Zrotation Xrotation Yrotation
										End Site
										{
OFFSET 0 -0.506930 0.000000
										}
									}
								}
								JOINT LThumb
								{
OFFSET 0 0.000000 0.000000
CHANNELS 3 Zrotation Xrotation Yrotation
									End Site
									{
OFFSET 0 -0.514670 0.514670
									}
								}
							}
						}
					}
				}
				JOINT RightCollar
				{
					OFFSET 0 0 0
					CHANNELS 3 Zrotation Yrotation Xrotation
					JOINT RightShoulder
					{
						OFFSET -3.33565 1.14597 0.05047
CHANNELS 3 Zrotation Xrotation Yrotation
						JOINT RightElbow
						{
OFFSET 0 -5.490200 0.000000
CHANNELS 3 Zrotation Xrotation Yrotation
							JOINT RightWrist
							{
OFFSET 0 -3.206590 -0.000000
CHANNELS 3 Zrotation Xrotation Yrotation
								JOINT rhand
								{
									OFFSET 0 0 0
CHANNELS 3 Zrotation Xrotation Yrotation
									JOINT RFingers
									{
OFFSET 0 -0.691880 0.000000
CHANNELS 3 Zrotation Xrotation Yrotation
										End Site
										{
OFFSET 0 -0.557810 0.000000
										}
									}
								}
								JOINT RThumb
								{
OFFSET 0 0.000000 0.000000
CHANNELS 3 Zrotation Xrotation Yrotation
									End Site
									{
OFFSET 0 -0.566330 0.566330
									}
								}
							}
						}
					}
				}
			}
		}
	}
}
MOTION
Frames: 12
Frame Time: .0083333
-0.5618 17.4736 8.1141 -5.9938 -0.3725 8.1280 0.0000 0.0000 0.0000 -20.8976 -36.0585 20.8982 0.0337 -1.1842 -3.2558 -5.2810 40.8108 -37.3636 0.3076 3.5657 9.8579 0.0000 0.0000 0.0000 25.1230 23.8907 6.7101 -0.0089 -0.6102 1.6767 0.5727 -17.2118 -18.0966 -0.0182 -0.8701 2.3916 4.4105 0.5807 3.6119 -0.0873 1.2699 -11.3318 -2.7594 0.1006 -14.3777 -1.4124 -4.1382 -6.1270 7.9974 -7.5941 24.4834 2.2301 -2.9336 9.0279 -0.0000 0.0000 0.0000 -0.1088 12.8365 28.4463 12.7653 -20.9424 2.3687 15.7149 17.8 10.0484 0.0 0.0 0.0 -7.1250 0.0 0.0 -8.0211 19.6016 -4.9134 -0.0000 0.0000 0.0000 3.9897 10.8703 -18.6769 -12.4686 -20.5037 -2.2637 8.7906 42.1664 31.0815 0.0 0.0 0.0 7.1250 0.0 -0.0 42.7485 55.676 -12.8826
-0.5631 17.4739 8.1152 -5.9828 -0.3650 8.0871 0.0000 0.0000 0.0000 -21.0193 -36.1519 21.0736 0.0342 -1.1931 -3.2803 -5.3037 40.8994 -37.4955 0.3083 3.5695 9.8684 0.0000 0.0000 0.0000 25.1458 23.8963 6.7800 -0.0088 -0.6059 1.6650 0.5814 -17.2681 -18.0882 -0.0192 -0.8944 2.4582 4.4175 0.5338 3.6650 0.0901 1.2270 -11.2171 -2.5598 0.0971 -14.2786 -1.8118 -3.8016 -5.9805 8.4307 -7.1063 23.9660 2.4940 -2.7161 8.8215 -0.0000 -0.0000 0.0000 -0.5527 12.5406 28.916 12.7613 -20.9364 2.3673 15.7895 18.2184 9.8832 0.0 0.0 0.0 -7.1250 0.0 0.0 -7.9708 19.7669 -4.8522 -0.0000 -0.0000 0.0000 3.5078 10.5535 -18.4694 -12.4082 -20.414 -2.2426 8.7519 42.1209 30.9746 0.0 0.0 0.0 7.1250 0.0 -0.0 42.6154 55.6022 -12.7489
-0.5638 17.4739 8.1155 -5.9860 -0.3417 8.0821 0.0000 0.0000 0.0000 -21.0596 -36.2218 21.1524 0.0345 -1.1994 -3.2975 -5.2155 40.8314 -37.7915 0.3402 3.7481 10.3691 0.0000 0.0000 0.0000 25.1562 23.8919 6.7826 -0.0090 -0.6128 1.6839 0.5815 -17.2921 -18.1356 -0.0219 -0.9558 2.6272 4.4541 0.4814 3.7022 0.2681 1.1795 -11.1209 -2.3756 0.0873 -14.1926 -1.7001 -3.4903 -5.5644 8.2555 -6.5579 23.1700 2.4680 -2.4982 8.4265 -0.0000 -0.0000 0.0000 -0.9846 12.2515 29.416 12.7313 -20.8923 2.3566 15.8897 18.5899 9.8481 0.0 0.0 0.0 -7.1250 0.0 0.0 -7.9002 19.7971 -4.803 -0.0000 -0.0000 0.0000 3.0745 10.2891 -18.1887 -12.4071 -20.4123 -2.2422 8.7677 41.9648 30.9503 0.0 0.0 0.0 7.1250 0.0 -0.0 42.6073 55.5805 -12.7218
-0.5634 17.4738 8.1153 -6.0079 -0.3179 8.0686 0.0000 0.0000 0.0000 -21.0749 -36.2769 21.2252 0.0348 -1.2038 -3.3097 -5.1776 40.8010 -37.9141 0.3546 3.8260 10.5876 0.0000 0.0000 0.0000 25.1809 23.8532 6.7798 -0.0091 -0.6160 1.6927 0.5803 -17.2878 -18.1430 -0.0223 -0.9642 2.6502 4.5220 0.4320 3.7586 0.4495 1.1410 -11.0322 -2.2073 0.0778 -14.1275 -2.0441 -3.4008 -5.8295 8.1623 -6.3569 23.1134 2.5089 -2.4354 8.4504 0.0000 -0.0000 0.0000 -1.4079 12.0044 29.7812 12.6977 -20.8427 2.3446 16.0093 18.795 9.8361 0.0 0.0 0.0 -7.1250 0.0 0.0 -7.8154 19.8024 -4.7495 0.0000 -0.0000 0.0000 2.6657 10.0552 -17.931 -12.4154 -20.4248 -2.2452 8.8007 41.8348 30.9947 0.0 0.0 0.0 7.1250 0.0 -0.0 42.6774 55.6077 -12.7791
-0.5671 17.4769 8.1155 -5.7993 -0.3879 8.1274 0.0000 0.0000 0.0000 -21.3135 -36.4183 21.2085 0.0339 -1.1879 -3.2660 -5.2432 40.9405 -37.9523 0.3526 3.8149 10.5565 0.0000 0.0000 0.0000 24.9509 24.0818 6.8069 -0.0084 -0.5935 1.6309 0.6097 -17.4969 -18.1585 -0.0260 -1.0402 2.8594 4.2499 0.4122 3.7264 0.5945 1.0967 -10.9630 -1.8878 0.1005 -14.0286 -3.2930 -3.5244 -7.0644 8.6838 -6.5530 24.0980 2.8737 -2.5278 9.0890 0.0000 0.0000 0.0000 -1.8394 11.7728 29.8825 12.6899 -20.8312 2.3419 16.1413 18.7509 9.3558 0.0 0.0 0.0 -7.1250 0.0 0.0 -7.7293 20.289 -4.6112 0.0000 0.0000 0.0000 2.1935 9.7584 -17.7322 -12.3207 -20.2838 -2.2122 8.9133 41.5322 31.2546 0.0 0.0 0.0 7.1250 0.0 -0.0 43.0184 55.7827 -13.1075
-0.5744 17.4835 8.1343 -5.7035 -0.2841 8.4283 0.0000 0.0000 0.0000 -21.2131 -36.5719 20.8949 0.0345 -1.1988 -3.2959 -5.4290 41.1568 -37.5494 0.3012 3.5287 9.7544 0.0000 0.0000 0.0000 24.8541 24.3791 6.8017 -0.0058 -0.4936 1.3564 0.6711 -17.9362 -18.2112 -0.0309 -1.1355 3.1216 4.0434 0.3155 3.1051 1.0024 0.9494 -10.8068 -1.2950 0.0958 -13.4626 -5.4928 -3.6548 -8.4546 9.6010 -6.6096 24.6586 3.5588 -2.6100 9.6587 0.0000 0.0000 0.0000 -2.7861 11.3124 30.0418 12.7377 -20.9016 2.3589 16.2064 18.5575 8.3943 0.0 0.0 0.0 -7.1250 0.0 0.0 -7.7022 21.2754 -4.4219 0.0000 0.0000 0.0000 1.1551 9.1365 -17.3191 -12.0820 -19.9275 -2.1301 9.0722 41.0114 31.6206 0.0 0.0 0.0 7.1250 0.0 -0.0 43.5037 56.0274 -13.5764
-0.5787 17.4868 8.1411 -5.6090 -0.2835 8.5601 0.0000 0.0000 0.0000 -21.2160 -36.6233 20.7468 0.0349 -1.2065 -3.3172 -5.5163 41.2693 -37.3905 0.2776 3.3891 9.3639 0.0000 0.0000 0.0000 24.7408 24.5335 6.7814 -0.0049 -0.4521 1.2422 0.7039 -18.1447 -18.1915 -0.0307 -1.1309 3.1091 3.9291 0.3221 3.0213 0.9427 0.9409 -10.9598 -1.2942 0.0957 -13.5926 -5.2688 -4.5152 -9.1348 8.1907 -7.5605 25.2952 2.9030 -3.1512 10.0404 -0.0000 -0.0000 0.0000 -2.7075 11.6026 29.6889 12.7640 -20.9404 2.3683 16.1381 18.2699 7.881 0.0 0.0 0.0 -7.1250 0.0 0.0 -7.7646 21.8072 -4.3638 -0.0000 -0.0000 0.0000 1.1867 9.3132 -17.3847 -12.0077 -19.8162 -2.1049 9.1508 40.7264 31.7411 0.0 0.0 0.0 7.1250 0.0 -0.0 43.6882 56.102 -13.736
-0.5787 17.4869 8.1406 -5.5915 -0.3057 8.5709 0.0000 0.0000 0.0000 -21.2386 -36.6349 20.7437 0.0349 -1.2056 -3.3147 -5.5220 41.2857 -37.4080 0.2781 3.3917 9.3713 0.0000 0.0000 0.0000 24.7104 24.5235 6.7671 -0.0048 -0.4460 1.2255 0.7055 -18.1396 -18.1577 -0.0293 -1.1042 3.0357 4.0784 0.3808 3.3591 0.7997 1.0474 -11.2065 -1.5533 0.1072 -14.0972 -2.9581 -5.0229 -8.2514 5.0022 -7.8312 24.1760 1.3847 -3.4451 9.2597 0.0000 -0.0000 0.0000 -2.4832 12.0236 29.5335 12.7366 -20.9 2.3585 16.0807 18.32 7.8519 0.0 0.0 0.0 -7.1250 0.0 0.0 -7.8070 21.8398 -4.3823 0.0000 -0.0000 0.0000 1.3956 9.7851 -17.4972 -12.0586 -19.8924 -2.1222 9.1742 40.5423 31.754 0.0 0.0 0.0 7.1250 0.0 -0.0 43.7213 56.1069 -13.7551
-0.5789 17.4869 8.1397 -5.5850 -0.3189 8.5807 0.0000 0.0000 0.0000 -21.2284 -36.6272 20.7119 0.0346 -1.2015 -3.3033 -5.4607 41.2141 -37.5410 0.2849 3.4325 9.4852 0.0000 0.0000 0.0000 24.7160 24.5806 6.7940 -0.0047 -0.4408 1.2111 0.7088 -18.1823 -18.2033 -0.0311 -1.1387 3.1307 4.1628 0.4149 3.5357 0.7255 1.1088 -11.3327 -1.6940 0.1144 -14.3589 -4.5528 -4.9979 -9.0900 6.9269 -8.0881 25.6003 2.2712 -3.4613 10.0976 -0.0000 0.0000 0.0000 -2.3455 12.2112 29.4602 12.6999 -20.846 2.3454 16.0285 18.3631 7.8739 0.0 0.0 0.0 -7.1250 0.0 0.0 -7.8442 21.8194 -4.4072 -0.0000 0.0000 0.0000 1.4984 10.0237 -17.5514 -12.0882 -19.9368 -2.1323 9.1759 40.4305 31.8001 0.0 0.0 0.0 7.1250 0.0 -0.0 43.7669 56.1413 -13.8127
-0.5791 17.4864 8.1390 -5.6096 -0.3485 8.5918 0.0000 0.0000 0.0000 -21.1365 -36.5474 20.6233 0.0345 -1.1998 -3.2987 -5.3056 41.0046 -37.7924 0.3125 3.5939 9.9368 0.0000 0.0000 0.0000 24.7342 24.5935 6.7659 -0.0048 -0.4482 1.2316 0.7041 -18.1524 -18.2049 -0.0325 -1.1629 3.1971 4.2158 0.4833 3.5406 0.6452 1.1988 -11.3243 -1.8265 0.1457 -14.3440 -4.1292 -4.7475 -8.6460 7.1035 -7.8284 25.1594 2.3012 -3.3006 9.8243 -0.0000 0.0000 0.0000 -2.1385 12.1472 29.2221 12.6528 -20.7764 2.3287 15.9955 18.3592 8.0091 0.0 0.0 0.0 -7.1250 0.0 0.0 -7.8643 21.6818 -4.4435 -0.0000 0.0000 0.0000 1.6599 9.9863 -17.8012 -12.1039 -19.9603 -2.1376 9.1957 40.4476 31.8201 0.0 0.0 0.0 7.1250 0.0 -0.0 43.8037 56.1523 -13.8403
-0.5784 17.4857 8.1379 -5.6016 -0.4088 8.6168 0.0000 0.0000 0.0000 -21.1164 -36.5184 20.5673 0.0344 -1.1964 -3.2893 -5.2749 40.9646 -37.8470 0.3211 3.6426 10.0734 0.0000 0.0000 0.0000 24.6871 24.5864 6.6972 -0.0050 -0.4563 1.2537 0.6995 -18.0893 -18.1343 -0.0317 -1.1488 3.1584 4.2956 0.6409 3.5397 0.4368 1.3981 -11.3039 -2.1325 0.2174 -14.2992 -4.4779 -4.0667 -8.3714 9.1729 -7.3374 25.2514 3.1588 -2.8886 9.8681 -0.0000 -0.0000 0.0000 -1.7193 12.0245 28.6788 12.6041 -20.7044 2.3114 16.0039 18.2856 8.1574 0.0 0.0 0.0 -7.1250 0.0 0.0 -7.8544 21.529 -4.4653 -0.0000 -0.0000 0.0000 2.0345 9.9272 -18.2965 -12.1417 -20.0169 -2.1506 9.1727 40.4814 31.8301 0.0 0.0 0.0 7.1250 0.0 -0.0 43.7928 56.1646 -13.8497
-0.5776 17.4858 8.1362 -5.5487 -0.4439 8.6486 0.0000 0.0000 0.0000 -21.1848 -36.5664 20.5489 0.0338 -1.1863 -3.2615 -5.3482 41.0703 -37.7476 0.3136 3.6002 9.9546 0.0000 0.0000 0.0000 24.6003 24.6066 6.6607 -0.0048 -0.4494 1.2347 0.7039 -18.0951 -18.0833 -0.0303 -1.1245 3.0913 4.2942 0.7172 3.5400 0.3146 1.4883 -11.3121 -2.2811 0.2512 -14.2995 -5.2585 -4.1089 -8.7459 10.2811 -7.5707 25.5938 3.6652 -2.9344 10.1619 -0.0000 -0.0000 0.0000 -1.5247 11.9934 28.3346 12.6099 -20.713 2.3135 16.0457 18.1701 8.1988 0.0 0.0 0.0 -7.1250 0.0 0.0 -7.8231 21.4844 -4.4552 -0.0000 -0.0000 0.0000 2.2251 9.9271 -18.5156 -12.1584 -20.0418 -2.1563 9.0252 40.5783 31.837 0.0 0.0 0.0 7.1250 0.0 -0.0 43.6676 56.2002 -13.8384
